<svg width="80" height="80" viewBox="0 0 101 102" fill="none" xmlns="http://www.w3.org/2000/svg">
<g clip-path="url(#clip0_4_79)">
<g filter="url(#filter0_iii_4_79)">
<path d="M0 47.7154C0 21.6391 21.1391 0.5 47.2155 0.5H52.1423C79.1257 0.5 101 22.3743 101 49.3577V52.6423C101 79.6257 79.1257 101.5 52.1423 101.5H50.5C22.6096 101.5 0 78.8904 0 51V47.7154Z" fill="url(#paint0_radial_4_79)"/>
</g>
<g filter="url(#filter1_i_4_79)">
<path d="M41.6892 47.9207C43.3808 47.9207 44.7852 46.5338 44.4222 44.8816C43.8462 42.2595 42.5314 39.8329 40.6033 37.9048C37.947 35.2484 34.3441 33.7561 30.5874 33.7561C26.8307 33.7561 23.2279 35.2484 20.5715 37.9048C18.7429 39.7335 17.4659 42.0106 16.8476 44.4777C16.3806 46.3408 17.9798 47.9207 19.9006 47.9207V47.9207C21.7013 47.9207 23.0999 46.3939 23.8653 44.764C24.2273 43.9932 24.7225 43.2831 25.3361 42.6695C26.7289 41.2767 28.6178 40.4943 30.5874 40.4943C32.557 40.4943 34.446 41.2767 35.8387 42.6695C36.3528 43.1835 36.7837 43.7651 37.1228 44.3935C38.0868 46.1798 39.6594 47.9207 41.6892 47.9207V47.9207Z" fill="#C4C4C4"/>
<path d="M41.6892 47.9207C43.3808 47.9207 44.7852 46.5338 44.4222 44.8816C43.8462 42.2595 42.5314 39.8329 40.6033 37.9048C37.947 35.2484 34.3441 33.7561 30.5874 33.7561C26.8307 33.7561 23.2279 35.2484 20.5715 37.9048C18.7429 39.7335 17.4659 42.0106 16.8476 44.4777C16.3806 46.3408 17.9798 47.9207 19.9006 47.9207V47.9207C21.7013 47.9207 23.0999 46.3939 23.8653 44.764C24.2273 43.9932 24.7225 43.2831 25.3361 42.6695C26.7289 41.2767 28.6178 40.4943 30.5874 40.4943C32.557 40.4943 34.446 41.2767 35.8387 42.6695C36.3528 43.1835 36.7837 43.7651 37.1228 44.3935C38.0868 46.1798 39.6594 47.9207 41.6892 47.9207V47.9207Z" fill="#221725"/>
</g>
<g filter="url(#filter2_i_4_79)">
<path d="M81.5144 47.9207C83.206 47.9207 84.6104 46.5338 84.2474 44.8816C83.6714 42.2595 82.3566 39.8329 80.4285 37.9048C77.7721 35.2484 74.1693 33.7561 70.4126 33.7561C66.6559 33.7561 63.0531 35.2484 60.3967 37.9048C58.5681 39.7335 57.2911 42.0106 56.6728 44.4777C56.2058 46.3408 57.805 47.9207 59.7258 47.9207V47.9207C61.5264 47.9207 62.9251 46.3939 63.6905 44.764C64.0525 43.9932 64.5477 43.2831 65.1613 42.6695C66.5541 41.2767 68.443 40.4943 70.4126 40.4943C72.3822 40.4943 74.2712 41.2767 75.6639 42.6695C76.1779 43.1835 76.6089 43.7651 76.948 44.3935C77.912 46.1798 79.4846 47.9207 81.5144 47.9207V47.9207Z" fill="#C4C4C4"/>
<path d="M81.5144 47.9207C83.206 47.9207 84.6104 46.5338 84.2474 44.8816C83.6714 42.2595 82.3566 39.8329 80.4285 37.9048C77.7721 35.2484 74.1693 33.7561 70.4126 33.7561C66.6559 33.7561 63.0531 35.2484 60.3967 37.9048C58.5681 39.7335 57.2911 42.0106 56.6728 44.4777C56.2058 46.3408 57.805 47.9207 59.7258 47.9207V47.9207C61.5264 47.9207 62.9251 46.3939 63.6905 44.764C64.0525 43.9932 64.5477 43.2831 65.1613 42.6695C66.5541 41.2767 68.443 40.4943 70.4126 40.4943C72.3822 40.4943 74.2712 41.2767 75.6639 42.6695C76.1779 43.1835 76.6089 43.7651 76.948 44.3935C77.912 46.1798 79.4846 47.9207 81.5144 47.9207V47.9207Z" fill="#221725"/>
</g>
<g filter="url(#filter3_iii_4_79)">
<path d="M72.5243 60.1354L55.6322 68.8597L68.818 77.6674C68.9216 77.7366 68.9734 77.7712 69.0143 77.798C74.2837 81.2423 81.3874 78.9178 83.6013 73.0248C83.6186 72.9789 83.6399 72.9204 83.6825 72.8035V72.8035C83.729 72.6759 83.7522 72.6122 83.769 72.5645C85.9513 66.3687 81.2587 59.9049 74.6916 60.0611C74.6411 60.0623 74.5733 60.0646 74.4377 60.0693L72.5243 60.1354Z" fill="#C4C4C4"/>
<path d="M72.5243 60.1354L55.6322 68.8597L68.818 77.6674C68.9216 77.7366 68.9734 77.7712 69.0143 77.798C74.2837 81.2423 81.3874 78.9178 83.6013 73.0248C83.6186 72.9789 83.6399 72.9204 83.6825 72.8035V72.8035C83.729 72.6759 83.7522 72.6122 83.769 72.5645C85.9513 66.3687 81.2587 59.9049 74.6916 60.0611C74.6411 60.0623 74.5733 60.0646 74.4377 60.0693L72.5243 60.1354Z" fill="url(#paint1_radial_4_79)"/>
</g>
<path d="M65.8731 63.2789C66.6907 62.3984 68.2317 62.7365 68.7724 63.8096C69.3198 64.8959 70.104 66.1594 71.168 67.239C72.644 68.7367 75.367 70.3679 77.3019 71.4295C78.2348 71.9415 78.274 73.3048 77.3529 73.8376V73.8376C76.8035 74.1554 76.1276 74.1556 75.5862 73.8244C74.1466 72.9439 71.2741 71.1148 69.5639 69.5393C67.8589 67.9685 66.4894 66.1827 65.7297 65.1091C65.3298 64.5439 65.4019 63.7863 65.8731 63.2789V63.2789Z" fill="black" fill-opacity="0.21"/>
<g filter="url(#filter4_ii_4_79)">
<mask id="path-6-inside-1_4_79" fill="white">
<path d="M73.1689 52.4481C75.1124 52.5886 76.5933 54.2986 76.1431 56.1945C75.2855 59.8062 73.5747 63.2079 71.1179 66.1408C67.8821 70.0038 63.4977 72.8801 58.5191 74.4058C53.5405 75.9316 48.1913 76.0383 43.1481 74.7125C39.3127 73.7042 35.7852 71.9019 32.8165 69.4555C31.2985 68.2046 31.4827 65.9151 33.0159 64.6828V64.6828C34.4178 63.556 36.4379 63.7414 37.857 64.8465C39.9509 66.4771 42.396 67.6855 45.04 68.3806C48.7482 69.3554 52.6812 69.277 56.3418 68.1551C60.0024 67.0333 63.2261 64.9185 65.6053 62.0781C67.2201 60.1503 68.3967 57.947 69.0785 55.6041C69.6155 53.7589 71.2521 52.3095 73.1689 52.4481V52.4481Z"/>
</mask>
<path d="M73.1689 52.4481C75.1124 52.5886 76.5933 54.2986 76.1431 56.1945C75.2855 59.8062 73.5747 63.2079 71.1179 66.1408C67.8821 70.0038 63.4977 72.8801 58.5191 74.4058C53.5405 75.9316 48.1913 76.0383 43.1481 74.7125C39.3127 73.7042 35.7852 71.9019 32.8165 69.4555C31.2985 68.2046 31.4827 65.9151 33.0159 64.6828V64.6828C34.4178 63.556 36.4379 63.7414 37.857 64.8465C39.9509 66.4771 42.396 67.6855 45.04 68.3806C48.7482 69.3554 52.6812 69.277 56.3418 68.1551C60.0024 67.0333 63.2261 64.9185 65.6053 62.0781C67.2201 60.1503 68.3967 57.947 69.0785 55.6041C69.6155 53.7589 71.2521 52.3095 73.1689 52.4481V52.4481Z" stroke="url(#paint2_linear_4_79)" stroke-width="9.03252" stroke-linejoin="round" mask="url(#path-6-inside-1_4_79)"/>
</g>
</g>
<defs>
<filter id="filter0_iii_4_79" x="-4.51626" y="-6.89024" width="114.138" height="114.959" filterUnits="userSpaceOnUse" color-interpolation-filters="sRGB">
<feFlood flood-opacity="0" result="BackgroundImageFix"/>
<feBlend mode="normal" in="SourceGraphic" in2="BackgroundImageFix" result="shape"/>
<feColorMatrix in="SourceAlpha" type="matrix" values="0 0 0 0 0 0 0 0 0 0 0 0 0 0 0 0 0 0 127 0" result="hardAlpha"/>
<feMorphology radius="3.28455" operator="erode" in="SourceAlpha" result="effect1_innerShadow_4_79"/>
<feOffset dx="8.62195" dy="5.3374"/>
<feGaussianBlur stdDeviation="9.85366"/>
<feComposite in2="hardAlpha" operator="arithmetic" k2="-1" k3="1"/>
<feColorMatrix type="matrix" values="0 0 0 0 0.682806 0 0 0 0 0.0652778 0 0 0 0 0.783333 0 0 0 0.14 0"/>
<feBlend mode="normal" in2="shape" result="effect1_innerShadow_4_79"/>
<feColorMatrix in="SourceAlpha" type="matrix" values="0 0 0 0 0 0 0 0 0 0 0 0 0 0 0 0 0 0 127 0" result="hardAlpha"/>
<feOffset dy="-7.39024"/>
<feGaussianBlur stdDeviation="6.36382"/>
<feComposite in2="hardAlpha" operator="arithmetic" k2="-1" k3="1"/>
<feColorMatrix type="matrix" values="0 0 0 0 0.943639 0 0 0 0 0.223611 0 0 0 0 0.958333 0 0 0 0.44 0"/>
<feBlend mode="normal" in2="effect1_innerShadow_4_79" result="effect2_innerShadow_4_79"/>
<feColorMatrix in="SourceAlpha" type="matrix" values="0 0 0 0 0 0 0 0 0 0 0 0 0 0 0 0 0 0 127 0" result="hardAlpha"/>
<feOffset dx="-4.51626" dy="6.56911"/>
<feGaussianBlur stdDeviation="6.36382"/>
<feComposite in2="hardAlpha" operator="arithmetic" k2="-1" k3="1"/>
<feColorMatrix type="matrix" values="0 0 0 0 1 0 0 0 0 1 0 0 0 0 1 0 0 0 0.59 0"/>
<feBlend mode="normal" in2="effect2_innerShadow_4_79" result="effect3_innerShadow_4_79"/>
</filter>
<filter id="filter1_i_4_79" x="16.7657" y="33.7561" width="27.7142" height="14.1646" filterUnits="userSpaceOnUse" color-interpolation-filters="sRGB">
<feFlood flood-opacity="0" result="BackgroundImageFix"/>
<feBlend mode="normal" in="SourceGraphic" in2="BackgroundImageFix" result="shape"/>
<feColorMatrix in="SourceAlpha" type="matrix" values="0 0 0 0 0 0 0 0 0 0 0 0 0 0 0 0 0 0 127 0" result="hardAlpha"/>
<feMorphology radius="10.8596" operator="dilate" in="SourceAlpha" result="effect1_innerShadow_4_79"/>
<feOffset dx="3.77724" dy="-2.87398"/>
<feGaussianBlur stdDeviation="4.24939"/>
<feComposite in2="hardAlpha" operator="arithmetic" k2="-1" k3="1"/>
<feColorMatrix type="matrix" values="0 0 0 0 0.462111 0 0 0 0 0.203767 0 0 0 0 0.504167 0 0 0 0.35 0"/>
<feBlend mode="normal" in2="shape" result="effect1_innerShadow_4_79"/>
</filter>
<filter id="filter2_i_4_79" x="56.5909" y="33.7561" width="27.7142" height="14.1646" filterUnits="userSpaceOnUse" color-interpolation-filters="sRGB">
<feFlood flood-opacity="0" result="BackgroundImageFix"/>
<feBlend mode="normal" in="SourceGraphic" in2="BackgroundImageFix" result="shape"/>
<feColorMatrix in="SourceAlpha" type="matrix" values="0 0 0 0 0 0 0 0 0 0 0 0 0 0 0 0 0 0 127 0" result="hardAlpha"/>
<feMorphology radius="10.8596" operator="dilate" in="SourceAlpha" result="effect1_innerShadow_4_79"/>
<feOffset dx="3.77724" dy="-3.69512"/>
<feGaussianBlur stdDeviation="4.24939"/>
<feComposite in2="hardAlpha" operator="arithmetic" k2="-1" k3="1"/>
<feColorMatrix type="matrix" values="0 0 0 0 0.462111 0 0 0 0 0.203767 0 0 0 0 0.504167 0 0 0 0.35 0"/>
<feBlend mode="normal" in2="shape" result="effect1_innerShadow_4_79"/>
</filter>
<filter id="filter3_iii_4_79" x="54.2911" y="55.5881" width="30.0194" height="25.6045" filterUnits="userSpaceOnUse" color-interpolation-filters="sRGB">
<feFlood flood-opacity="0" result="BackgroundImageFix"/>
<feBlend mode="normal" in="SourceGraphic" in2="BackgroundImageFix" result="shape"/>
<feColorMatrix in="SourceAlpha" type="matrix" values="0 0 0 0 0 0 0 0 0 0 0 0 0 0 0 0 0 0 127 0" result="hardAlpha"/>
<feOffset dy="1.78808"/>
<feGaussianBlur stdDeviation="2.2351"/>
<feComposite in2="hardAlpha" operator="arithmetic" k2="-1" k3="1"/>
<feColorMatrix type="matrix" values="0 0 0 0 0 0 0 0 0 0 0 0 0 0 0 0 0 0 0.25 0"/>
<feBlend mode="normal" in2="shape" result="effect1_innerShadow_4_79"/>
<feColorMatrix in="SourceAlpha" type="matrix" values="0 0 0 0 0 0 0 0 0 0 0 0 0 0 0 0 0 0 127 0" result="hardAlpha"/>
<feOffset dx="-1.34106" dy="1.78808"/>
<feGaussianBlur stdDeviation="0.894039"/>
<feComposite in2="hardAlpha" operator="arithmetic" k2="-1" k3="1"/>
<feColorMatrix type="matrix" values="0 0 0 0 1 0 0 0 0 1 0 0 0 0 1 0 0 0 0.29 0"/>
<feBlend mode="normal" in2="effect1_innerShadow_4_79" result="effect2_innerShadow_4_79"/>
<feColorMatrix in="SourceAlpha" type="matrix" values="0 0 0 0 0 0 0 0 0 0 0 0 0 0 0 0 0 0 127 0" result="hardAlpha"/>
<feOffset dy="-4.4702"/>
<feGaussianBlur stdDeviation="2.2351"/>
<feComposite in2="hardAlpha" operator="arithmetic" k2="-1" k3="1"/>
<feColorMatrix type="matrix" values="0 0 0 0 0.828932 0 0 0 0 0.0596354 0 0 0 0 0.954167 0 0 0 0.6 0"/>
<feBlend mode="normal" in2="effect2_innerShadow_4_79" result="effect3_innerShadow_4_79"/>
</filter>
<filter id="filter4_ii_4_79" x="31.7675" y="52.4389" width="44.4568" height="23.1953" filterUnits="userSpaceOnUse" color-interpolation-filters="sRGB">
<feFlood flood-opacity="0" result="BackgroundImageFix"/>
<feBlend mode="normal" in="SourceGraphic" in2="BackgroundImageFix" result="shape"/>
<feColorMatrix in="SourceAlpha" type="matrix" values="0 0 0 0 0 0 0 0 0 0 0 0 0 0 0 0 0 0 127 0" result="hardAlpha"/>
<feMorphology radius="10.8596" operator="dilate" in="SourceAlpha" result="effect1_innerShadow_4_79"/>
<feOffset dy="-8.21138"/>
<feGaussianBlur stdDeviation="2.87398"/>
<feComposite in2="hardAlpha" operator="arithmetic" k2="-1" k3="1"/>
<feColorMatrix type="matrix" values="0 0 0 0 0.3625 0 0 0 0 0.3625 0 0 0 0 0.3625 0 0 0 0.97 0"/>
<feBlend mode="normal" in2="shape" result="effect1_innerShadow_4_79"/>
<feColorMatrix in="SourceAlpha" type="matrix" values="0 0 0 0 0 0 0 0 0 0 0 0 0 0 0 0 0 0 127 0" result="hardAlpha"/>
<feMorphology radius="10.8596" operator="dilate" in="SourceAlpha" result="effect2_innerShadow_4_79"/>
<feOffset dx="3.77724" dy="-3.69512"/>
<feGaussianBlur stdDeviation="4.24939"/>
<feComposite in2="hardAlpha" operator="arithmetic" k2="-1" k3="1"/>
<feColorMatrix type="matrix" values="0 0 0 0 0.462111 0 0 0 0 0.203767 0 0 0 0 0.504167 0 0 0 0.35 0"/>
<feBlend mode="normal" in2="effect1_innerShadow_4_79" result="effect2_innerShadow_4_79"/>
</filter>
<radialGradient id="paint0_radial_4_79" cx="0" cy="0" r="1" gradientUnits="userSpaceOnUse" gradientTransform="translate(44.752 7.06911) rotate(86.5167) scale(94.6057)">
<stop stop-color="#FFBB0C"/>
<stop offset="1" stop-color="#FFC907"/>
</radialGradient>
<radialGradient id="paint1_radial_4_79" cx="0" cy="0" r="1" gradientUnits="userSpaceOnUse" gradientTransform="translate(65.2759 67.1844) rotate(64.8545) scale(20.5878 17.0326)">
<stop stop-color="#FC4141"/>
<stop offset="1" stop-color="#FF0F0F"/>
</radialGradient>
<linearGradient id="paint2_linear_4_79" x1="35.8829" y1="47.8376" x2="52.3493" y2="74.3584" gradientUnits="userSpaceOnUse">
<stop stop-color="#402C41"/>
<stop offset="1" stop-color="#0C0B0E"/>
</linearGradient>
<clipPath id="clip0_4_79">
<rect width="101" height="101" fill="white" transform="translate(0 0.5)"/>
</clipPath>
</defs>
</svg>
