<svg width="85" height="125" viewBox="0 0 85 125" fill="none" xmlns="http://www.w3.org/2000/svg">
<g filter="url(#filter0_d_201_30)">
<path d="M28 30C29.1046 30 30 29.1046 30 28V7.55249C30 6.44792 30.8954 5.55249 32 5.55249H67.5436C68.6481 5.55249 69.5436 6.44792 69.5436 7.55249V107.106C69.5436 108.211 68.6481 109.106 67.5436 109.106H7.54358C6.43901 109.106 5.54358 108.211 5.54358 107.106V32C5.54358 30.8954 6.43901 30 7.54358 30H28Z" fill="#E4EBF1"/>
</g>
<g filter="url(#filter1_d_201_30)">
<path d="M18 17.5L29.9896 5.55249V29.9985H5.54358L18 17.5Z" fill="#E4EBF1"/>
</g>
<defs>
<filter id="filter0_d_201_30" x="0.543579" y="0.55249" width="84" height="123.554" filterUnits="userSpaceOnUse" color-interpolation-filters="sRGB">
<feFlood flood-opacity="0" result="BackgroundImageFix"/>
<feColorMatrix in="SourceAlpha" type="matrix" values="0 0 0 0 0 0 0 0 0 0 0 0 0 0 0 0 0 0 127 0" result="hardAlpha"/>
<feOffset dx="5" dy="5"/>
<feGaussianBlur stdDeviation="5"/>
<feComposite in2="hardAlpha" operator="out"/>
<feColorMatrix type="matrix" values="0 0 0 0 0.0862745 0 0 0 0 0.105882 0 0 0 0 0.113725 0 0 0 0.23 0"/>
<feBlend mode="normal" in2="BackgroundImageFix" result="effect1_dropShadow_201_30"/>
<feBlend mode="normal" in="SourceGraphic" in2="effect1_dropShadow_201_30" result="shape"/>
</filter>
<filter id="filter1_d_201_30" x="5.03958" y="5.04349" width="27.364" height="27.364" filterUnits="userSpaceOnUse" color-interpolation-filters="sRGB">
<feFlood flood-opacity="0" result="BackgroundImageFix"/>
<feColorMatrix in="SourceAlpha" type="matrix" values="0 0 0 0 0 0 0 0 0 0 0 0 0 0 0 0 0 0 127 0" result="hardAlpha"/>
<feOffset dx="0.955" dy="0.95"/>
<feGaussianBlur stdDeviation="0.7295"/>
<feComposite in2="hardAlpha" operator="out"/>
<feColorMatrix type="matrix" values="0 0 0 0 0.0862745 0 0 0 0 0.105882 0 0 0 0 0.113725 0 0 0 0.23 0"/>
<feBlend mode="normal" in2="BackgroundImageFix" result="effect1_dropShadow_201_30"/>
<feBlend mode="normal" in="SourceGraphic" in2="effect1_dropShadow_201_30" result="shape"/>
</filter>
</defs>
</svg>
